<svg width="209" height="128" viewBox="0 0 209 128" fill="none" xmlns="http://www.w3.org/2000/svg">
<path d="M41.9925 21.8043H9.86496C4.16939 21.8043 0 16.6623 0 10.9685C0 5.2747 4.16939 0.0333252 9.86496 0.0333252H59.975C65.6816 0.0333252 69.9506 5.28573 69.9506 10.9795C69.9506 12.1823 69.7294 13.385 69.3976 14.4774H69.5082L42.4238 90.185C40.8865 96.3091 33.7643 98.3946 27.7259 96.5298C21.8091 94.665 18.7346 89.0925 20.1612 82.9684L41.9814 21.8043H41.9925Z" fill="white"/>
<path d="M160.283 23.0069C174.428 23.0069 185.941 34.4938 185.941 48.6068C185.941 62.7199 174.428 74.2068 160.283 74.2068C146.139 74.2068 134.626 62.7199 134.626 48.6068C134.626 34.4938 146.139 23.0069 160.283 23.0069ZM160.283 0C133.376 0 111.567 21.76 111.567 48.6068C111.567 75.4537 133.376 97.2137 160.283 97.2137C187.191 97.2137 209 75.4537 209 48.6068C209 21.76 187.18 0 160.283 0Z" fill="white"/>
<path d="M93.3744 26.6705H82.0054C82.0939 28.0718 82.0718 29.4181 81.928 30.7201H93.4629C93.3191 29.4181 93.297 28.0718 93.3855 26.6705H93.3744Z" fill="white"/>
<path d="M94.1593 21.4621C95.8735 15.338 97.4661 7.73526 94.5907 3.32148C93.1972 1.18079 90.8747 0.077341 87.6896 0.0332031C84.5156 0.077341 82.1931 1.18079 80.7996 3.32148C77.9242 7.73526 79.5167 15.327 81.2199 21.4401C81.2199 21.4621 81.2199 21.4732 81.2309 21.4952H94.1593C94.1593 21.4952 94.1593 21.4732 94.1593 21.4621Z" fill="white"/>
<path d="M80.3681 36.6785C68.2249 59.9061 67.7604 72.8495 78.2116 96.9157C78.2779 97.0812 78.4327 97.1805 78.5876 97.1805H96.8024C96.9683 97.1805 97.112 97.0812 97.1784 96.9157C107.63 72.8275 107.165 59.873 95.0218 36.7116C94.9112 36.4358 94.8117 36.1599 94.7121 35.8951H80.6667C80.5672 36.1599 80.4787 36.4247 80.3681 36.6785Z" fill="white"/>
<path d="M94.1594 21.4949H81.231C81.6623 23.3156 81.9056 25.026 82.0051 26.6701H93.3742C93.4737 25.026 93.7281 23.3046 94.1483 21.4949H94.1594Z" fill="#D3134D"/>
<path d="M80.6554 35.895H94.7008C94.0594 34.2178 93.6502 32.5074 93.4511 30.7198H81.9162C81.7171 32.5074 81.2968 34.2288 80.6554 35.895Z" fill="#D3134D"/>
<path d="M62.5515 121.092C62.5515 117.23 65.3938 114.328 69.3973 114.328C71.8856 114.328 73.7325 115.387 74.7942 116.877C75.3472 117.66 75.1813 118.808 74.3519 119.448C73.5667 120.044 72.2727 119.956 71.6755 119.15C71.211 118.532 70.5917 117.859 69.3973 117.859C67.672 117.859 66.5661 119.238 66.5661 121.081C66.5661 122.924 67.672 124.369 69.3973 124.369C70.6912 124.369 71.4764 123.729 72.0073 123.034C72.6266 122.229 73.7768 122.162 74.5841 122.869C75.303 123.509 75.3915 124.59 74.9048 125.329C73.9095 126.852 71.8856 127.9 69.3973 127.9C65.3827 127.9 62.5515 124.998 62.5515 121.07V121.092Z" fill="white"/>
<path d="M89.6141 126.091C89.6141 127.283 88.7625 128 87.6123 128C86.4622 128 85.6106 127.283 85.6106 126.091V119.856C85.6106 118.709 84.8475 117.881 83.6973 117.881C82.5471 117.881 81.7619 118.687 81.7619 119.79V126.091C81.7619 127.283 80.9104 128 79.7602 128C78.61 128 77.7584 127.283 77.7584 126.091V110.08C77.7584 108.888 78.61 108.171 79.7602 108.171C80.9104 108.171 81.7619 108.888 81.7619 110.08V115.575C82.3591 114.77 83.5867 114.328 84.8032 114.328C87.2695 114.328 89.6251 115.752 89.6251 119.437V126.08L89.6141 126.091Z" fill="white"/>
<path d="M94.6127 108.171C95.8845 108.171 96.9462 109.23 96.9462 110.499C96.9462 111.768 95.8845 112.827 94.6127 112.827C93.3409 112.827 92.2792 111.768 92.2792 110.499C92.2792 109.23 93.3409 108.171 94.6127 108.171ZM96.6255 126.091C96.6255 127.283 95.7739 128 94.6238 128C93.4736 128 92.622 127.283 92.622 126.091V116.248C92.622 115.056 93.4736 114.339 94.6238 114.339C95.7739 114.339 96.6255 115.056 96.6255 116.248V126.091Z" fill="white"/>
<path d="M103.87 126.091C103.87 127.283 103.018 128 101.868 128C100.718 128 99.8663 127.283 99.8663 126.091V110.08C99.8663 108.888 100.718 108.171 101.868 108.171C103.018 108.171 103.87 108.888 103.87 110.08V126.091Z" fill="white"/>
<path d="M112.252 114.56H115.294C116.289 114.56 116.864 115.431 116.864 116.358C116.864 117.285 116.289 118.157 115.294 118.157H112.252V122.935C112.252 123.928 112.827 124.358 113.469 124.358C113.911 124.358 114.32 124.292 114.741 124.105C115.482 123.785 116.355 124.193 116.72 125.142C117.107 126.157 116.654 127.029 115.957 127.371C115.128 127.779 114.132 127.923 113.281 127.923C109.841 127.923 108.227 126.157 108.227 123.321V118.146H107.375C106.38 118.146 105.926 117.274 105.926 116.347C105.926 115.42 106.391 114.549 107.375 114.549H108.227V112.198C108.227 111.007 109.078 110.289 110.228 110.289C111.379 110.289 112.23 111.007 112.23 112.198V114.549L112.252 114.56Z" fill="white"/>
<path d="M129.527 122.847H122.405C122.748 123.862 123.876 124.546 125.236 124.546C126.597 124.546 127.614 124.204 128.466 123.829C129.317 123.487 130.102 123.895 130.445 124.612C130.788 125.351 130.744 126.245 129.892 126.775C128.72 127.514 127.028 127.922 125.092 127.922C121.2 127.922 118.247 124.998 118.247 121.158C118.247 117.318 120.989 114.328 125.004 114.328C128.742 114.328 131.573 117.318 131.573 120.772C131.573 122.151 130.954 122.847 129.516 122.847H129.527ZM127.614 119.58C127.338 118.587 126.254 117.782 125.015 117.782C123.776 117.782 122.615 118.587 122.317 119.58H127.614Z" fill="white"/>
<path d="M145.984 126.091C145.984 127.282 145.132 128 143.982 128C142.832 128 141.98 127.282 141.98 126.091V119.856C141.98 118.709 141.217 117.881 140.067 117.881C138.917 117.881 138.132 118.686 138.132 119.79V126.091C138.132 127.282 137.28 128 136.13 128C134.98 128 134.128 127.282 134.128 126.091V116.248C134.128 115.056 134.98 114.339 136.13 114.339C137.081 114.339 137.833 114.846 138.065 115.674C138.729 114.78 139.912 114.339 141.173 114.339C143.639 114.339 145.995 115.762 145.995 119.448V126.091H145.984Z" fill="white"/>
</svg>
