<svg width="120" height="56" viewBox="0 0 120 56" fill="none" xmlns="http://www.w3.org/2000/svg">
<path d="M24.1105 12.5328H5.66409C2.39391 12.5328 0 9.57725 0 6.30455C0 3.03185 2.39391 0.0191956 5.66409 0.0191956H34.4354C37.7119 0.0191956 40.163 3.0382 40.163 6.3109C40.163 7.00222 40.036 7.69355 39.8455 8.32145H39.909L24.3581 51.8369C23.4755 55.357 19.3862 56.5557 15.9192 55.4838C12.522 54.412 10.7567 51.209 11.5758 47.689L24.1042 12.5328H24.1105Z" fill="white"/>
<path d="M92.0288 13.224C100.15 13.224 106.761 19.8265 106.761 27.9385C106.761 36.0504 100.15 42.6529 92.0288 42.6529C83.9073 42.6529 77.297 36.0504 77.297 27.9385C77.297 19.8265 83.9073 13.224 92.0288 13.224ZM92.0288 0C76.5795 0 64.0575 12.5073 64.0575 27.9385C64.0575 43.3696 76.5795 55.8769 92.0288 55.8769C107.478 55.8769 120 43.3696 120 27.9385C120 12.5073 107.472 0 92.0288 0Z" fill="white"/>
<path d="M53.6121 15.3297H47.0844C47.1352 16.1352 47.1225 16.909 47.04 17.6574H53.6629C53.5804 16.909 53.5677 16.1352 53.6185 15.3297H53.6121Z" fill="white"/>
<path d="M54.0627 12.3361C55.047 8.81607 55.9614 4.44613 54.3104 1.90915C53.5103 0.678718 52.1768 0.0444738 50.3481 0.019104C48.5257 0.0444738 47.1922 0.678718 46.3921 1.90915C44.7411 4.44613 45.6555 8.80973 46.6334 12.3234C46.6334 12.3361 46.6334 12.3425 46.6397 12.3552H54.0627C54.0627 12.3552 54.0627 12.3425 54.0627 12.3361Z" fill="white"/>
<path d="M46.1444 21.0822C39.1722 34.4331 38.9055 41.8728 44.9062 55.7056C44.9443 55.8008 45.0332 55.8578 45.1221 55.8578H55.5803C55.6756 55.8578 55.7581 55.8008 55.7962 55.7056C61.7969 41.8601 61.5302 34.4141 54.558 21.1013C54.4945 20.9427 54.4373 20.7841 54.3802 20.6319H46.3158C46.2587 20.7841 46.2079 20.9364 46.1444 21.0822Z" fill="white"/>
<path d="M54.0628 12.3549H46.6398C46.8874 13.4014 47.0271 14.3845 47.0843 15.3295H53.612C53.6691 14.3845 53.8152 13.3951 54.0564 12.3549H54.0628Z" fill="#D3134D"/>
<path d="M46.3093 20.6319H54.3737C54.0054 19.6678 53.7704 18.6848 53.6561 17.6573H47.0332C46.9189 18.6848 46.6776 19.6742 46.3093 20.6319Z" fill="#D3134D"/>
</svg>
