<svg width="34" height="98" viewBox="0 0 34 98" fill="none" xmlns="http://www.w3.org/2000/svg">
<path d="M22.586 26.6373H11.2169C11.3054 28.0386 11.2833 29.3849 11.1395 30.6869H22.6744C22.5307 29.3849 22.5086 28.0386 22.597 26.6373H22.586Z" fill="white"/>
<path d="M23.3708 21.4289C25.085 15.3048 26.6776 7.70206 23.8021 3.28827C22.4087 1.14758 20.0862 0.0441379 16.9011 0C13.727 0.0441379 11.4046 1.14758 10.0111 3.28827C7.13566 7.70206 8.72821 15.2938 10.4314 21.4069C10.4314 21.4289 10.4313 21.44 10.4424 21.462H23.3708C23.3708 21.462 23.3708 21.44 23.3708 21.4289Z" fill="white"/>
<path d="M9.57969 36.6453C-2.5635 59.8729 -3.02799 72.8163 7.42312 96.8825C7.48947 97.048 7.6443 97.1473 7.79913 97.1473H26.0139C26.1798 97.1473 26.3236 97.048 26.39 96.8825C36.8411 72.7943 36.3766 59.8398 24.2334 36.6784C24.1228 36.4026 24.0232 36.1267 23.9237 35.8619H9.8783C9.77877 36.1267 9.69029 36.3915 9.57969 36.6453Z" fill="white"/>
<path d="M23.3709 21.4617H10.4425C10.8738 23.2824 11.1171 24.9928 11.2167 26.6369H22.5857C22.6852 24.9928 22.9396 23.2714 23.3599 21.4617H23.3709Z" fill="#D3134D"/>
<path d="M9.86694 35.8618H23.9123C23.2709 34.1846 22.8617 32.4742 22.6626 30.6866H11.1277C10.9286 32.4742 10.5084 34.1956 9.86694 35.8618Z" fill="#D3134D"/>
</svg>
